<svg width="9" height="16" viewBox="0 0 9 16" fill="none" xmlns="http://www.w3.org/2000/svg">
<path d="M7.70373 15.2253C7.86998 15.2253 8.03623 15.1669 8.16748 15.0419C8.42123 14.8003 8.42123 14.4003 8.16748 14.1586L2.46248 8.72526C2.04248 8.32526 2.04248 7.67526 2.46248 7.27526L8.16748 1.84193C8.42123 1.60026 8.42123 1.20026 8.16748 0.958594C7.91373 0.716927 7.49373 0.716927 7.23998 0.958594L1.53498 6.39193C1.08873 6.81693 0.834976 7.39193 0.834976 8.00026C0.834976 8.60859 1.07998 9.18359 1.53498 9.60859L7.23998 15.0419C7.37123 15.1586 7.53748 15.2253 7.70373 15.2253Z" fill="#0C0D0D"/>
</svg>
